# File created by Blade
# Date/Time:  Thu Sep 25 18:48:06 2014
# Frame Rate: 120.000 fps
#------------------------------------------------------
:FULLY-SPECIFIED
:DEGREES
391
root -0.397888 32.494995 -6.709499 82.393517 5.748709 -3.106209
Spine 30.794794 2.209629 2.442328
Head -26.168402 -3.495961 8.561924
LeftShoulder -25.241760 44.617525 10.765105
LeftArm -25.976440 37.942505 -100.781075
LeftForeArm 0.702606 -0.000000 13.841834
LeftHand -16.864314 -0.000000 -66.955921
LeftHandThumb1 -26.253704 0.000000 33.147579
RightShoulder -26.665778 -17.454245 -31.419446
RightArm -52.470382 -10.715932 98.293204
RightForeArm -22.348942 -0.000000 6.364597
RightHand 0.244987 -0.000000 66.897789
RightHandThumb1 -24.326973 -0.000000 -32.862282
LeftUpLeg -92.240151 8.779262 -0.492534
LeftLeg -3.144175 -0.000000 0.000000
LeftFoot 6.328187 6.959597 -14.230229
LeftToeBase 12.618254 -0.000000 -0.000000
RightUpLeg -90.098309 -1.180724 13.022842
RightLeg -2.343495 -0.000000 0.000000
RightFoot 7.067639 -4.845035 3.287379
RightToeBase 1.055932 -0.000000 -0.000000
392
root -0.390458 32.495222 -6.730887 82.868520 5.705284 -3.048105
Spine 31.184146 2.099206 2.374297
Head -26.599205 -3.401314 8.641768
LeftShoulder -25.409680 44.886308 10.713934
LeftArm -26.182383 37.839233 -100.548534
LeftForeArm 1.046033 -0.000000 13.813840
LeftHand -16.845579 -0.000000 -67.005636
LeftHandThumb1 -26.253704 0.000000 33.147579
RightShoulder -26.644781 -17.642757 -31.588481
RightArm -52.754114 -10.822214 98.033640
RightForeArm -22.552506 -0.000000 6.270893
RightHand 0.273907 -0.000000 66.982204
RightHandThumb1 -24.326973 -0.000000 -32.862282
LeftUpLeg -92.773156 8.688028 -0.749079
LeftLeg -3.131954 -0.000000 0.000000
LeftFoot 6.417861 6.878186 -14.159085
LeftToeBase 12.611926 -0.000000 -0.000000
RightUpLeg -90.627206 -1.133841 12.991699
RightLeg -2.315781 -0.000000 0.000000
RightFoot 7.099002 -4.843822 3.330621
RightToeBase 1.060033 -0.000000 -0.000000
393
root -0.383114 32.494797 -6.746980 83.317215 5.642766 -2.990900
Spine 31.599285 2.018623 2.293851
Head -27.047031 -3.380387 8.665940
LeftShoulder -25.540990 45.171138 10.690954
LeftArm -26.346518 37.861049 -100.330450
LeftForeArm 1.217500 -0.000000 13.733402
LeftHand -16.790028 -0.000000 -66.913600
LeftHandThumb1 -26.253704 0.000000 33.147579
RightShoulder -26.645740 -17.864035 -31.670999
RightArm -53.023938 -10.915185 97.722382
RightForeArm -22.765646 -0.000000 6.257062
RightHand 0.369722 0.000000 67.007422
RightHandThumb1 -24.326973 -0.000000 -32.862282
LeftUpLeg -93.257320 8.599549 -1.010821
LeftLeg -3.138352 -0.000000 0.000000
LeftFoot 6.485454 6.803613 -14.088404
LeftToeBase 12.630446 -0.000000 -0.000000
RightUpLeg -91.120983 -1.079244 12.983381
RightLeg -2.296827 -0.000000 0.000000
RightFoot 7.151313 -4.826964 3.199514
RightToeBase 0.959318 -0.000000 -0.000000
394
root -0.375569 32.495804 -6.762024 83.752934 5.589744 -2.927087
Spine 32.034417 1.907669 2.219779
Head -27.471866 -3.237215 8.688845
LeftShoulder -25.703112 45.478759 10.626412
LeftArm -26.500320 37.870830 -100.126657
LeftForeArm 1.508509 -0.000000 13.721569
LeftHand -16.759259 -0.000000 -67.153138
LeftHandThumb1 -26.253704 0.000000 33.147579
RightShoulder -26.599959 -17.896183 -31.887949
RightArm -53.455630 -10.991273 97.492190
RightForeArm -23.016861 -0.000000 6.180744
RightHand 0.348160 -0.000000 67.036566
RightHandThumb1 -24.326973 -0.000000 -32.862282
LeftUpLeg -93.724901 8.501053 -1.260112
LeftLeg -3.143884 -0.000000 0.000000
LeftFoot 6.555008 6.728597 -14.099620
LeftToeBase 12.709825 -0.000000 -0.000000
RightUpLeg -91.586179 -1.042316 12.993948
RightLeg -2.299399 -0.000000 0.000000
RightFoot 7.175755 -4.782041 3.196292
RightToeBase 1.031211 -0.000000 -0.000000
395
root -0.369832 32.496136 -6.776383 84.194244 5.547390 -2.878044
Spine 32.441252 1.783226 2.145688
Head -27.853851 -3.068526 8.681926
LeftShoulder -25.895450 45.752671 10.556343
LeftArm -26.769050 38.037761 -100.022911
LeftForeArm 1.480515 -0.000000 13.675989
LeftHand -16.620067 -0.000000 -67.181706
LeftHandThumb1 -26.253704 0.000000 33.147579
RightShoulder -26.621942 -18.308391 -31.974874
RightArm -53.457288 -11.231035 97.274311
RightForeArm -23.197204 -0.000000 6.090497
RightHand 0.458376 0.000000 67.090840
RightHandThumb1 -24.326973 -0.000000 -32.862282
LeftUpLeg -94.194110 8.420897 -1.442892
LeftLeg -3.144351 -0.000000 0.000000
LeftFoot 6.607733 6.700311 -14.036623
LeftToeBase 12.715469 -0.000000 -0.000000
RightUpLeg -92.055191 -0.991786 12.959317
RightLeg -2.298083 -0.000000 0.000000
RightFoot 7.224457 -4.788846 3.192029
RightToeBase 0.948243 -0.000000 -0.000000
396
root -0.362568 32.497155 -6.788168 84.616551 5.506417 -2.834709
Spine 32.871579 1.666585 2.103700
Head -28.197249 -2.908566 8.609985
LeftShoulder -26.041688 46.014057 10.479198
LeftArm -26.994815 38.047301 -99.836860
LeftForeArm 1.736431 -0.000000 13.715446
LeftHand -16.693371 -0.000000 -67.247352
LeftHandThumb1 -26.253704 0.000000 33.147579
RightShoulder -26.613411 -18.547549 -32.108967
RightArm -53.675777 -11.354227 97.006994
RightForeArm -23.342577 -0.000000 6.068371
RightHand 0.407365 0.000000 67.087988
RightHandThumb1 -24.326973 -0.000000 -32.862282
LeftUpLeg -94.630912 8.346525 -1.603360
LeftLeg -3.156857 -0.000000 0.000000
LeftFoot 6.658397 6.678631 -14.055170
LeftToeBase 12.695868 -0.000000 -0.000000
RightUpLeg -92.499219 -0.946460 12.923868
RightLeg -2.290919 -0.000000 0.000000
RightFoot 7.233972 -4.792104 3.249464
RightToeBase 0.998953 -0.000000 -0.000000
397
root -0.354131 32.499464 -6.796882 85.006855 5.475730 -2.779738
Spine 33.354790 1.529244 2.079799
Head -28.622721 -2.861356 8.522238
LeftShoulder -26.187517 46.318671 10.376281
LeftArm -27.132897 38.086105 -99.680851
LeftForeArm 1.915466 0.000000 13.642054
LeftHand -16.605655 -0.000000 -67.267217
LeftHandThumb1 -26.253704 0.000000 33.147579
RightShoulder -26.601413 -18.711474 -32.250296
RightArm -53.939622 -11.540279 96.819355
RightForeArm -23.443993 -0.000000 6.054525
RightHand 0.367638 -0.000000 67.161197
RightHandThumb1 -24.326973 -0.000000 -32.862282
LeftUpLeg -95.029256 8.257251 -1.738440
LeftLeg -3.166823 -0.000000 0.000000
LeftFoot 6.706918 6.676952 -13.998971
LeftToeBase 12.754420 -0.000000 -0.000000
RightUpLeg -92.907407 -0.921040 12.916703
RightLeg -2.287085 -0.000000 0.000000
RightFoot 7.260484 -4.757682 3.245325
RightToeBase 0.992797 -0.000000 -0.000000
398
root -0.346625 32.500834 -6.805142 85.391696 5.418522 -2.723489
Spine 33.818450 1.400365 1.990351
Head -28.977340 -2.836449 8.463157
LeftShoulder -26.363780 46.607369 10.376295
LeftArm -27.396910 38.355359 -99.674318
LeftForeArm 1.911652 -0.000000 13.632164
LeftHand -16.558502 -0.000000 -67.280791
LeftHandThumb1 -26.253704 0.000000 33.147579
RightShoulder -26.547278 -18.863463 -32.365859
RightArm -54.240526 -11.740274 96.669943
RightForeArm -23.531863 -0.000000 6.065133
RightHand 0.363219 -0.000000 67.194427
RightHandThumb1 -24.326973 -0.000000 -32.862282
LeftUpLeg -95.418404 8.170390 -1.896956
LeftLeg -3.181211 -0.000000 0.000000
LeftFoot 6.754896 6.674968 -13.993415
LeftToeBase 12.769316 -0.000000 -0.000000
RightUpLeg -93.321367 -0.893636 12.885216
RightLeg -2.263619 -0.000000 0.000000
RightFoot 7.266689 -4.730373 3.234734
RightToeBase 1.023341 -0.000000 -0.000000
399
root -0.339397 32.502284 -6.812069 85.773742 5.388153 -2.693257
Spine 34.268892 1.372518 1.992754
Head -29.326608 -2.958102 8.429007
LeftShoulder -26.348787 46.862680 10.460697
LeftArm -27.676617 38.430281 -99.604217
LeftForeArm 2.057259 -0.000000 13.692831
LeftHand -16.470740 0.000000 -67.351027
LeftHandThumb1 -26.253704 0.000000 33.147579
RightShoulder -26.567514 -19.119302 -32.475224
RightArm -54.429328 -11.807400 96.344349
RightForeArm -23.823802 -0.000000 6.042859
RightHand 0.382582 -0.000000 67.269594
RightHandThumb1 -24.326973 -0.000000 -32.862282
LeftUpLeg -95.814102 8.108051 -2.007534
LeftLeg -3.171863 -0.000000 0.000000
LeftFoot 6.769578 6.679337 -13.998842
LeftToeBase 12.768376 -0.000000 -0.000000
RightUpLeg -93.721050 -0.844507 12.864083
RightLeg -2.248996 -0.000000 0.000000
RightFoot 7.291968 -4.723539 3.216309
RightToeBase 0.967354 -0.000000 -0.000000
400
root -0.327866 32.504920 -6.815605 86.141011 5.356963 -2.646691
Spine 34.747955 1.254185 1.942648
Head -29.656538 -2.920328 8.402905
LeftShoulder -26.544989 47.194778 10.401237
LeftArm -27.849198 38.639755 -99.537959
LeftForeArm 1.987358 -0.000000 13.693838
LeftHand -16.581554 -0.000000 -67.334773
LeftHandThumb1 -26.253704 0.000000 33.147579
RightShoulder -26.506480 -19.265441 -32.572613
RightArm -54.666110 -11.951134 96.093530
RightForeArm -23.997282 -0.000000 6.025299
RightHand 0.503825 0.000000 67.370681
RightHandThumb1 -24.326973 -0.000000 -32.862282
LeftUpLeg -96.179059 8.022075 -2.098504
LeftLeg -3.172191 -0.000000 0.000000
LeftFoot 6.791261 6.714883 -13.935246
LeftToeBase 12.803156 -0.000000 -0.000000
RightUpLeg -94.113716 -0.820632 12.871257
RightLeg -2.209810 -0.000000 0.000000
RightFoot 7.288344 -4.679166 3.196931
RightToeBase 1.037904 -0.000000 -0.000000
401
root -0.319809 32.507329 -6.817001 86.537522 5.289525 -2.618966
Spine 35.176081 1.096062 1.805022
Head -29.980874 -2.806703 8.341563
LeftShoulder -26.813417 47.492400 10.246711
LeftArm -28.066616 38.707917 -99.416871
LeftForeArm 2.023936 -0.000000 13.700395
LeftHand -16.461267 -0.000000 -67.642400
LeftHandThumb1 -26.253704 0.000000 33.147579
RightShoulder -26.435399 -19.491780 -32.645044
RightArm -54.750102 -12.146715 95.838948
RightForeArm -24.103055 -0.000000 5.979748
RightHand 0.406487 -0.000000 67.579725
RightHandThumb1 -24.326973 -0.000000 -32.862282
LeftUpLeg -96.568839 7.961261 -2.240198
LeftLeg -3.182436 -0.000000 0.000000
LeftFoot 6.812809 6.737387 -13.918359
LeftToeBase 12.751316 -0.000000 -0.000000
RightUpLeg -94.531443 -0.763451 12.813853
RightLeg -2.172077 -0.000000 0.000000
RightFoot 7.308745 -4.677685 3.171611
RightToeBase 0.988910 -0.000000 -0.000000
402
root -0.310049 32.510659 -6.814545 86.892993 5.255757 -2.584230
Spine 35.706156 1.119123 1.852576
Head -30.437309 -2.883119 8.316765
LeftShoulder -26.769591 47.677731 10.315598
LeftArm -28.172108 38.557749 -99.175404
LeftForeArm 2.376630 -0.000000 13.615650
LeftHand -16.330444 -0.000000 -67.763357
LeftHandThumb1 -26.253704 0.000000 33.147579
RightShoulder -26.544138 -19.473130 -32.789162
RightArm -55.171458 -12.215380 95.531020
RightForeArm -24.356639 0.000000 5.923501
RightHand 0.463275 -0.000000 67.756516
RightHandThumb1 -24.326973 -0.000000 -32.862282
LeftUpLeg -96.912808 7.889474 -2.341218
LeftLeg -3.186139 -0.000000 0.000000
LeftFoot 6.826026 6.742343 -13.855551
LeftToeBase 12.772477 -0.000000 -0.000000
RightUpLeg -94.901580 -0.729865 12.794646
RightLeg -2.133712 -0.000000 0.000000
RightFoot 7.310733 -4.665313 3.180773
RightToeBase 1.005936 -0.000000 -0.000000
